<svg id="Layer_1" data-name="Layer 1" xmlns="http://www.w3.org/2000/svg" viewBox="0 0 38 50">
  <defs>
    <style>
      .cls-1 {
        fill: #f5f1e3;
      }
    </style>
  </defs>
  <title>bank-guarantee</title>
  <g>
    <path class="cls-1" d="M36,33a5,5,0,1,0,5,5A5,5,0,0,0,36,33Z" transform="translate(-13 -7)"/>
    <path class="cls-1" d="M50,7H14a1,1,0,0,0-1,1V56a1,1,0,0,0,1,1H50a1,1,0,0,0,1-1V8A1,1,0,0,0,50,7ZM28,27H22a1,1,0,0,1,0-2h6a1,1,0,0,1,0,2ZM40.95,49.68a1,1,0,0,1-.63,1.26A1,1,0,0,1,40,51a1,1,0,0,1-.95-.68l-1.81-5.43A6.85,6.85,0,0,1,36,45a6.94,6.94,0,0,1-1.24-.12l-1.81,5.43a1,1,0,0,1-1.9-.63l1.81-5.44a7,7,0,1,1,6.27,0ZM42,21H22a1,1,0,0,1,0-2H42a1,1,0,0,1,0,2Zm0-6H22a1,1,0,0,1,0-2H42a1,1,0,0,1,0,2Z" transform="translate(-13 -7)"/>
  </g>
</svg>
