<svg id="Layer_1" data-name="Layer 1" xmlns="http://www.w3.org/2000/svg" viewBox="0 0 87.57 88.13">
  <defs>
    <style>
      .cls-1 {
        fill: #f5f1e3;
      }
    </style>
  </defs>
  <title>contracts</title>
  <g>
    <path class="cls-1" d="M75.56,5.94a2.07,2.07,0,0,0-1.78,2v7.34c.26,1.56,1.15,2.37,2.28,2.37v3.16c-1.72.06-2.28.86-2.28,2.41V74.41a2.55,2.55,0,0,0,.06.91l5.38,17.22a2,2,0,0,0,3.81,0L88.4,75.31a2.91,2.91,0,0,0,.09-1V27.69h1.28V39.53a2,2,0,0,0,4,0c0-9.31,0-18.52,0-27.81a2.1,2.1,0,0,0-2.22-2.38h-3V7.94a2.08,2.08,0,0,0-2-2H75.56ZM88.5,13.35h1.25V23.69H88.5c0-1.77-.53-2.91-2.28-2.91V17.66a2.05,2.05,0,0,0,2.22-1.47,1.84,1.84,0,0,0,.06-.37,2,2,0,0,0,0-.41V13.35ZM77.78,24.81H84.5c0,15.89,0,32,0,47.91H77.78V24.81Z" transform="translate(-6.22 -5.94)"/>
    <path class="cls-1" d="M8.22,6.06a2.08,2.08,0,0,0-2,2v84a2.08,2.08,0,0,0,2,2h60a2.08,2.08,0,0,0,2-2V22.25a2.72,2.72,0,0,0-1-2.28L56.37,6.66a2.8,2.8,0,0,0-2.09-.59H8.22Zm2,4H52.53V21.88a2.08,2.08,0,0,0,2,2H66.22V90.06h-56v-80Z" transform="translate(-6.22 -5.94)"/>
    <path class="cls-1" d="M18.2,22.21a2,2,0,1,0-.05,4H46.26a2,2,0,1,0,.05-4H18.2Z" transform="translate(-6.22 -5.94)"/>
    <path class="cls-1" d="M18.2,31.17a2,2,0,1,0-.05,4H57.43a2,2,0,1,0,.05-4H18.2Z" transform="translate(-6.22 -5.94)"/>
    <path class="cls-1" d="M18.23,40.72a2,2,0,1,0-.05,4H58.1a2,2,0,1,0,.05-4H18.23Z" transform="translate(-6.22 -5.94)"/>
    <path class="cls-1" d="M18.23,50.78a2,2,0,1,0-.05,4H58.23a2,2,0,1,0,.05-4H18.23Z" transform="translate(-6.22 -5.94)"/>
  </g>
</svg>
