<svg id="Layer_1" data-name="Layer 1" xmlns="http://www.w3.org/2000/svg" viewBox="0 0 85.73 71.5">
  <defs>
    <style>
      .cls-1 {
        fill: #f5f1e3;
      }
    </style>
  </defs>
  <title>dashboard</title>
  <path class="cls-1" d="M14.64,81.59a2.16,2.16,0,0,0,1.1-.3c7.66-4.54,18.53-7.15,29.81-7.15s22.14,2.61,29.81,7.15a2.16,2.16,0,0,0,2.74-.45,42.87,42.87,0,1,0-65.1,0A2.15,2.15,0,0,0,14.64,81.59Zm8.8-13.1-4.93,2.86a2.16,2.16,0,1,1-2.17-3.73l4.93-2.86a2.16,2.16,0,1,1,2.17,3.73Zm52.86,1.92a2.16,2.16,0,0,1-2.95.8l-4.94-2.84a2.16,2.16,0,0,1,2.15-3.75l4.94,2.84A2.16,2.16,0,0,1,76.31,70.41Zm4-17.45a2.16,2.16,0,0,1-2.16,2.16h-5.7a2.16,2.16,0,0,1,0-4.32h5.7A2.16,2.16,0,0,1,80.28,53ZM67.74,37.76l4.93-2.87a2.16,2.16,0,1,1,2.17,3.73L69.91,41.5a2.16,2.16,0,0,1-2.17-3.73ZM57.15,28.84l2.83-5A2.16,2.16,0,1,1,63.73,26L60.9,31a2.16,2.16,0,1,1-3.75-2.14ZM43.39,20.38a2.16,2.16,0,1,1,4.32,0v5.7a2.16,2.16,0,1,1-4.32,0ZM40.21,48.5c2.48-2.22,20.79-11,21.56-11.32a.8.8,0,0,1,1,1.14c-.46.73-11.19,17.94-13.68,20.15a6.69,6.69,0,0,1-8.91-10ZM28.69,23.18a2.16,2.16,0,0,1,3,.79l2.85,4.94a2.16,2.16,0,1,1-3.74,2.16L27.9,26.13A2.16,2.16,0,0,1,28.69,23.18ZM16.06,35.85A2.16,2.16,0,0,1,19,35L24,37.89a2.16,2.16,0,1,1-2.15,3.75l-4.94-2.84A2.16,2.16,0,0,1,16.06,35.85ZM10.82,53A2.16,2.16,0,0,1,13,50.79h5.7a2.16,2.16,0,0,1,0,4.32H13A2.16,2.16,0,0,1,10.82,53Z" transform="translate(-2.68 -10.09)"/>
</svg>
