<svg id="Layer_1" data-name="Layer 1" xmlns="http://www.w3.org/2000/svg" viewBox="0 0 77.19 97.93">
  <defs>
    <style>
      .cls-1 {
        fill: #f5f1e3;
      }
    </style>
  </defs>
  <title>discounts</title>
  <path class="cls-1" d="M37.14,17.2a6.5,6.5,0,0,0,1.23-4.6,7.86,7.86,0,0,0-6.81-6.67A7.15,7.15,0,0,0,26.46,9a7.34,7.34,0,0,0-1.15,5.59,7.93,7.93,0,0,0,4.28,5.71,6.07,6.07,0,0,1,.89.52,3.58,3.58,0,0,1,.74.63A2.72,2.72,0,0,1,32,23.06a1.46,1.46,0,0,1-1,1.54,4,4,0,0,1-1.3.27,6,6,0,0,1-1.59-.2,11.53,11.53,0,0,1-8.2-8.38A12,12,0,0,1,23.14,4.86a12.23,12.23,0,0,1,3.14-2.21,11.47,11.47,0,0,1,7.51-1.5,11.74,11.74,0,0,1,8.5,17.46A8.62,8.62,0,0,1,38,22.37a6.37,6.37,0,0,1-4.89,0c-.85-.42-1.25-1-.93-1.8a2.12,2.12,0,0,1,.86-1A5.88,5.88,0,0,0,37.14,17.2ZM17.39,27.73a11.24,11.24,0,0,1,5-1.26h3.87a3.14,3.14,0,0,1,1.65.85,2.83,2.83,0,0,1,.33.38l.1.13,1.6,2L32,32.63l.76-.92,1.65-2,.83-1,.41-.5.21-.25.16-.19a2.88,2.88,0,0,1,2.08-1h4.63a6.77,6.77,0,0,1,2.87.86,7,7,0,0,1,.83.55l.32.27.25.21,2,1.69L55.61,36l2.19-1.68,4-3,2-1.5L64.91,29a6.29,6.29,0,0,1,1.59-.79,6.17,6.17,0,0,1,6.37,1.58,5.93,5.93,0,0,1,1.53,2.92,5.87,5.87,0,0,1-.27,3.16,6.06,6.06,0,0,1-1.73,2.47,12.68,12.68,0,0,1-1.05.75l-1,.65-3.84,2.52q-3.79,2.45-7.4,4.52a9.07,9.07,0,0,1-1.93,1,2.19,2.19,0,0,1-1.29,0c-.61-.26-.55-.62-.16-1a3.81,3.81,0,0,0,.71-.92,17.38,17.38,0,0,1,2.16-2.08l8-6.24,2-1.57c.86-.66.87-.68,1.08-1a1.66,1.66,0,0,0,.25-.85,1.19,1.19,0,0,0-.22-.71,1.42,1.42,0,0,0-1.43-.6,1.33,1.33,0,0,0-.38.13,3,3,0,0,0-.56.41l-2,1.58-8,6.33a3,3,0,0,1-3.79,0h0L46.16,35,44.3,33.5l-.93-.77-.27-.21-.16-.1a1.37,1.37,0,0,0-.35-.12H39.5l-1.14,1.4-3,3.74-.19.23a4.4,4.4,0,0,1-.35.39,4,4,0,0,1-5.66,0L29,37.82l-.27-.34-1.49-1.89-2.72-3.45H22.25a5.58,5.58,0,0,0-3,1,5.79,5.79,0,0,0-2,2.48,5.35,5.35,0,0,0-.4,1.56A7.27,7.27,0,0,0,17,39l1,9.5.45,4.74.22,2.37.1,1.16a5.21,5.21,0,0,0,.13.86,2.58,2.58,0,0,0,0,.48,4.45,4.45,0,0,1,0-.48A5.16,5.16,0,0,0,22.06,61a2,2,0,0,1,1.31,1.58v0l4.24,28.8.13.9.06.44a1,1,0,0,0,0,.15.86.86,0,0,0,.26.41.88.88,0,0,0,.43.21h6.72a.76.76,0,0,0,.41-.14.75.75,0,0,0,.27-.34.66.66,0,0,0,0-.2L36,92l.37-3.62.76-7.24c.64-6.68,1.69-13.33,2.63-20l3-19.91v-.08A2,2,0,0,1,46.07,40h0a61.32,61.32,0,0,1,6.58,6.41l.53.64c.15.2.24.33.37.49a6.45,6.45,0,0,0,.75.74c.49.42.91.71,1,1s-.14.69-1,.83A3.87,3.87,0,0,1,52.93,50a5,5,0,0,1-1-.36l-.5-.28L51,49.14c-1.2-.71-2.62-1.67-4.16-2.79q-.79,7.21-1.64,14.41l-1.1,9.44c-.4,3.16-.8,6.32-1.11,9.48l-1,9.49-.26,2.37-.13,1.19-.07.59a7,7,0,0,1-.22,1.11,6.32,6.32,0,0,1-4.92,4.43,6.87,6.87,0,0,1-1.15.1H28.62A6.25,6.25,0,0,1,23.1,95.4a6.09,6.09,0,0,1-.4-1.07,5.36,5.36,0,0,1-.12-.55l-.07-.47-.15-1.19-.3-2.37L21.45,85,20,73l-1.24-8.2a10,10,0,0,1-4.91-7.38l-.36-2.61L12.12,44.46l-.67-5.17V37.65a12.07,12.07,0,0,1,.15-1.74,11.23,11.23,0,0,1,5.9-8.17Zm20.85,1.9ZM58.5,89a2.31,2.31,0,0,0,3-.06,37.44,37.44,0,0,0,3.92-4.27c1.84-2.49,3.47-5.14,5.19-7.72,4.76-3.34,7.41-8.46,11.11-12.69.16-.19,0-.82-.24-1.15a1.78,1.78,0,0,0-1.81-.69,8.52,8.52,0,0,0-5.23,2.8c-3.18,3.43-6.55,6.72-9,10.75-.4.43-.8.84-1.19,1.28a45.85,45.85,0,0,0-6.45,8.93,2,2,0,0,0,.61,2.76Zm20.31,4.67a7.59,7.59,0,0,0,5.53-1.26,8,8,0,0,0,2.26-1.74,8.14,8.14,0,0,0,1.94-4.15,9.31,9.31,0,0,0,.1-1.15V82.78a7.91,7.91,0,0,0-1.85-4.21A7.49,7.49,0,0,0,83,76.19a2.83,2.83,0,0,0-2.14.18,1.57,1.57,0,0,0-.73,1.55,4.15,4.15,0,0,0,.47,1.62,2.46,2.46,0,0,0,.78,1A3.5,3.5,0,0,1,82.62,82,4.41,4.41,0,0,1,83,83.58l.07,2.14a3.37,3.37,0,0,1-.34,1.37,3.27,3.27,0,0,1-2.39,1.77,4.23,4.23,0,0,1-2.06-1.57,3.45,3.45,0,0,1-.47-1,4,4,0,0,1-.11-.5V85.2c0-1.9,0-2.13.34-2.83a2,2,0,0,1,1.67-1c.1,0,.26-.55.35-.93a1.69,1.69,0,0,0-.59-1.82A3.66,3.66,0,0,0,76,78.19,5.22,5.22,0,0,0,73,81a7.56,7.56,0,0,0-.68,2.57c-.07.75-.13,1.24-.18,2a7.87,7.87,0,0,0,6.63,8.1ZM57.16,75.42a7.59,7.59,0,0,0,5.53-1.26,8,8,0,0,0,2.26-1.74,8.14,8.14,0,0,0,1.94-4.15,9.31,9.31,0,0,0,.1-1.15V64.53a7.91,7.91,0,0,0-1.85-4.21A7.49,7.49,0,0,0,61.33,58a2.83,2.83,0,0,0-2.14.18,1.57,1.57,0,0,0-.73,1.55,4.15,4.15,0,0,0,.47,1.62,2.46,2.46,0,0,0,.78,1A3.5,3.5,0,0,1,61,63.77a4.41,4.41,0,0,1,.42,1.65l.07,2.14a3.37,3.37,0,0,1-.34,1.37,3.27,3.27,0,0,1-2.39,1.77,4.23,4.23,0,0,1-2.06-1.57,3.44,3.44,0,0,1-.47-1,4,4,0,0,1-.11-.5V67c0-1.9,0-2.13.34-2.83a2,2,0,0,1,1.67-1c.1,0,.26-.55.35-.93a1.69,1.69,0,0,0-.59-1.82A3.66,3.66,0,0,0,54.37,60a5.22,5.22,0,0,0-3,2.79,7.56,7.56,0,0,0-.68,2.57c-.07.75-.13,1.24-.18,2a7.87,7.87,0,0,0,6.63,8.1Z" transform="translate(-11.45 -1.03)"/>
</svg>
