<svg id="Layer_1" data-name="Layer 1" xmlns="http://www.w3.org/2000/svg" viewBox="0 0 97.12 98">
  <defs>
    <style>
      .cls-1 {
        fill: #f5f1e3;
      }
    </style>
  </defs>
  <title>management</title>
  <path class="cls-1" d="M38.73,45.47V41.35a20,20,0,0,1-3.19-8.15,10.61,10.61,0,0,1-3.64-8,5.68,5.68,0,0,1,1.75-4.13A5.75,5.75,0,0,1,35.27,20V16.29a14.44,14.44,0,0,1,1-5.33c2.07-5,7-10,13.64-10h3a2.5,2.5,0,0,1,2.5,2.5V5.37a15.23,15.23,0,0,1,7.87,5.75,10.05,10.05,0,0,1,1.92,6v3a5.77,5.77,0,0,1,1.56,1.11,5.69,5.69,0,0,1,1.68,4A10.64,10.64,0,0,1,65,33.07a20.3,20.3,0,0,1-3.33,8.43v4.07a39.71,39.71,0,0,1,12,6,2.5,2.5,0,0,1-3,4A34.77,34.77,0,0,0,58.93,50a3.07,3.07,0,0,1-2.29-3V41a3.75,3.75,0,0,1,.76-2.24,15.45,15.45,0,0,0,2.75-7.36,2.5,2.5,0,0,1,1-1.74,5.63,5.63,0,0,0,2.32-4.53.7.7,0,0,0-.21-.51.75.75,0,0,0-.53-.22h0a2.5,2.5,0,0,1-2.5-2.5V17a5.15,5.15,0,0,0-1-3,9.65,9.65,0,0,0-6.58-4.17,2.5,2.5,0,0,1-2.24-2.49V6h-.54C45.67,6,42.3,9.54,41,12.83a9.48,9.48,0,0,0-.65,3.49L40.25,22a2.5,2.5,0,0,1-2.53,2.47h-.07a.73.73,0,0,0-.54.21.7.7,0,0,0-.22.52,5.62,5.62,0,0,0,2.41,4.6,2.5,2.5,0,0,1,1,1.76A15.57,15.57,0,0,0,43,38.73a3.69,3.69,0,0,1,.73,2.2v6a3.07,3.07,0,0,1-2.32,3A34.74,34.74,0,0,0,29.33,55.6a2.5,2.5,0,1,1-3-4A39.69,39.69,0,0,1,38.73,45.47ZM7.44,70.11v4.64a2.5,2.5,0,0,0,5,0V70.11a3.17,3.17,0,0,1,3.17-3.17H47.5v7.81a2.5,2.5,0,0,0,5,0V66.94H84.39a3.17,3.17,0,0,1,3.17,3.17v4.64a2.5,2.5,0,0,0,5,0V70.11a8.18,8.18,0,0,0-8.17-8.17H15.61A8.18,8.18,0,0,0,7.44,70.11ZM98.56,90.43v.14A8.44,8.44,0,0,1,90.13,99H90a8.44,8.44,0,0,1-8.43-8.43v-.14A8.44,8.44,0,0,1,90,82h.14A8.44,8.44,0,0,1,98.56,90.43Zm-5,0A3.43,3.43,0,0,0,90.13,87H90a3.43,3.43,0,0,0-3.43,3.43h0v.14A3.43,3.43,0,0,0,90,94h.14a3.43,3.43,0,0,0,3.43-3.43h0Zm-52.06.14v-.14A8.44,8.44,0,0,1,49.93,82h.14a8.44,8.44,0,0,1,8.43,8.43v.14A8.44,8.44,0,0,1,50.07,99h-.14A8.44,8.44,0,0,1,41.5,90.57Zm5,0A3.43,3.43,0,0,0,49.93,94h.14a3.43,3.43,0,0,0,3.43-3.43h0v-.14A3.43,3.43,0,0,0,50.07,87h-.14a3.43,3.43,0,0,0-3.43,3.43h0ZM9.87,82H10a8.44,8.44,0,0,1,8.43,8.43v.14A8.44,8.44,0,0,1,10,99H9.87a8.44,8.44,0,0,1-8.43-8.43v-.14A8.44,8.44,0,0,1,9.87,82ZM6.44,90.57A3.43,3.43,0,0,0,9.87,94H10a3.43,3.43,0,0,0,3.43-3.43h0v-.14A3.43,3.43,0,0,0,10,87H9.87a3.43,3.43,0,0,0-3.43,3.43h0Z" transform="translate(-1.44 -1)"/>
</svg>
