<svg id="Layer_1" data-name="Layer 1" xmlns="http://www.w3.org/2000/svg" viewBox="0 0 95 59.34">
  <defs>
    <style>
      .cls-1 {
        fill: #f5f1e3;
      }
    </style>
  </defs>
  <title>personnel</title>
  <path class="cls-1" d="M74.48,33.82a16.2,16.2,0,0,0,5.64-12.76c0-8.31-5.64-13.65-12.17-13.65-5.64,0-10.39,3.86-11.87,10.09A19,19,0,0,1,65,34.12a22.29,22.29,0,0,1-2.67,11,34.19,34.19,0,0,1,11.27,6.53H94.95c.3.3,0-13.94-20.47-17.8M32.64,45.1a23.11,23.11,0,0,1-2.67-11c0-7.42,3.56-13.65,9.2-16.91C37.68,11,33.23,7.42,27.3,7.42c-6.83,0-12.17,5.34-12.17,13.65a16.66,16.66,0,0,0,5.64,12.76C.3,37.39,0,51.63,0,51.63H21.36A33.19,33.19,0,0,1,32.64,45.1m22,2.67a17.37,17.37,0,0,0,5.94-13.65c0-8.9-5.94-14.54-13.06-14.54S34.42,25.22,34.42,34.12a17.82,17.82,0,0,0,5.93,13.65c-21.66,3.86-22,19-22,19H76.26c.59,0,0-15.13-21.66-19" transform="translate(0 -7.42)"/>
</svg>
